# xmcd
#
# Track frame offsets: 
#        150
#        10386
#        22661
#        34184
#        46532
#        54456
#        63093
#        70004
#        80516
#        90391
#        100227
#        110326
#        120987
#        131871
#        141633
#        151581
#        163743
#        177891
#        191928
#        204764
#        216851
#        230024
#        244586
#        254122
#        263693
#        273455
#        282655
#        294254
#
# Disc length: 4027 seconds
#
# Revision: 1
# Processed by: cddbd v1.5.2PL0 Copyright (c) Steve Scherf et al.
# Submitted via: ExactAudioCopyFreeDBPlugin 1.0
#
DISCID=8b0fb91c
DTITLE=Jim Reeves - Welcome To My World - CD 11
DYEAR=2001
DGENRE=Country
TTITLE0=Daar Doer In Die Bosveld (Afrikaaner)
TTITLE1=Ding Dong (Afrikaaner)
TTITLE2=Draf Maar Aan Ou Ryperd (Afrikaaner)
TTITLE3=Die Blonde Matroos (Afrikaaner)
TTITLE4=Jy Is My Liefling (Afrikaaner)
TTITLE5=In Die Skadu Van Ou Tafelberg (Afrikaaner)
TTITLE6=Sarie Marais (Afrikaaner)
TTITLE7=Geboorteplasie (Afrikaaner)
TTITLE8=Net 'n Stille Uurtjie (Afrikaaner)
TTITLE9=Noointjie Van Die Ou Transvaal (Afrikaaner)
TTITLE10=Verreland (Afrikaaner)
TTITLE11=My Blinde Hart (Afrikaaner)
TTITLE12=Good Morning Self
TTITLE13=Is This Me
TTITLE14=Missing Angel
TTITLE15=Teardrops On The Rocks
TTITLE16=Heartbreak In Silhouette
TTITLE17=Auf Wiederseh'n Sweetheart
TTITLE18=Golden Memories And Silver Tears
TTITLE19=Blue Canadian Rockies
TTITLE20=(There'll Be Bluebirds Over)The White Cliffs Of Dover
TTITLE21=Guilty
TTITLE22=The Hawaiian Wedding Song
TTITLE23=True
TTITLE24=The Old Kalahari (Afrikaaner)
TTITLE25=I'm Crying Again(Ek Verlang Na Jou)
TTITLE26=Tahiti (Afrikaaner)
TTITLE27=You Are My Love
EXTD=
EXTT0=
EXTT1=
EXTT2=
EXTT3=
EXTT4=
EXTT5=
EXTT6=
EXTT7=
EXTT8=
EXTT9=
EXTT10=
EXTT11=
EXTT12=
EXTT13=
EXTT14=
EXTT15=
EXTT16=
EXTT17=
EXTT18=
EXTT19=
EXTT20=
EXTT21=
EXTT22=
EXTT23=
EXTT24=
EXTT25=
EXTT26=
EXTT27=
PLAYORDER=
